<svg t="1629965510506" class="icon" viewBox="0 0 1024 1024" version="1.1" xmlns="http://www.w3.org/2000/svg" p-id="6370" width="200" height="200"><path d="M128 160a32 32 0 0 1 64 0V832h672a32 32 0 0 1 0 64H160a32 32 0 0 1-32-32V160z" p-id="6371"></path><path d="M725.333333 170.666667a128 128 0 1 0 0 256 128 128 0 0 0 0-256z m-64 128a64 64 0 1 1 128 0 64 64 0 0 1-128 0zM256 384a128 128 0 1 1 256 0 128 128 0 0 1-256 0z m128-64a64 64 0 1 0 0 128 64 64 0 0 0 0-128zM640 512a128 128 0 1 0 0 256 128 128 0 0 0 0-256z m-64 128a64 64 0 1 1 128 0 64 64 0 0 1-128 0z" p-id="6372"></path></svg>