<svg t="1629970589081" class="icon" viewBox="0 0 1291 1024" version="1.1" xmlns="http://www.w3.org/2000/svg" p-id="19537" width="200" height="200"><path d="M1246.608696 934.956522h-40.069566V238.636522a17.808696 17.808696 0 0 0-31.165217-11.575652L883.311304 504.876522l-356.173913-337.474783a18.69913 18.69913 0 0 0-25.822608 0l-52.535653 48.973913H445.217391L89.043478 559.193043V44.521739A44.521739 44.521739 0 0 0 44.521739 0a44.521739 44.521739 0 0 0-44.521739 44.521739V979.478261a44.521739 44.521739 0 0 0 44.521739 44.521739H1246.608696a44.521739 44.521739 0 0 0 0-89.043478zM89.043478 707.005217l425.627826-403.366956L623.304348 406.038261l-534.26087 507.547826z m345.488696 227.951305H223.49913l478.163479-454.121739 104.180869 97.947826-367.749565 350.831304z m666.935652 0h-151.373913l151.373913-143.36z m0-292.062609l-306.309565 290.281739H588.577391L1101.467826 445.217391z" p-id="19538"></path></svg>