<svg t="1629965476212" class="icon" viewBox="0 0 1025 1024" version="1.1" xmlns="http://www.w3.org/2000/svg" p-id="5442" width="200" height="200"><path d="M478.232381 0l-63.75619 0 0 96.01219c-232.057905 25.258667-414.47619 224.865524-414.47619 463.993905C0 816.249905 206.969905 1024 462.287238 1024c188.318476 0 349.988571-113.176381 422.083048-275.309714l72.094476 19.309714c34.840381-57.441524 63.75619-138.971429 63.75619-237.714286C1020.220952 237.397333 765.318095 0 478.232381 0zM462.287238 960c-220.111238 0-398.531048-179.102476-398.531048-399.993905 0-201.289143 156.745143-371.907048 350.695619-399.993905l0 429.714286 405.187048 141.677714C765.732571 868.08381 610.937905 960 462.287238 960zM910.262857 691.614476l-432.054857-147.626667L478.208 64c248.027429-1.29219 474.697143 213.820952 474.697143 466.285714C952.905143 596.138667 935.765333 646.070857 910.262857 691.614476z" p-id="5443"></path></svg>