<svg t="1629965447920" class="icon" viewBox="0 0 1024 1024" version="1.1" xmlns="http://www.w3.org/2000/svg" p-id="3274" width="200" height="200"><path d="M512 958.016q-188.992-4.992-315.008-131.008T65.984 512q4.992-188.992 131.008-315.008T512 65.984q188.992 4.992 315.008 131.008T958.016 512q-4.992 188.992-131.008 315.008T512 958.016z m0-828q-162.016 4-270.016 112t-112 270.016q4 162.016 112 270.016t270.016 112q162.016-4 270.016-112t112-270.016q-4-162.016-112-270.016T512 130.016zM464 304q0.992 20 14.496 33.504t33.504 13.504 33.504-13.504 13.504-33.504-13.504-33.504T512 256.992t-33.504 13.504T464 304zM512 768q-14.016 0-23.008-8.992T480 736v-288q0-14.016 8.992-23.008T512 416t23.008 8.992T544 448v288q0 14.016-8.992 23.008T512 768z" p-id="3275"></path></svg>