<svg t="1629970327244" class="icon" viewBox="0 0 1024 1024" version="1.1" xmlns="http://www.w3.org/2000/svg" p-id="11483" width="200" height="200"><path d="M762.3 164.5h-95.8v-23.7c0-13.3-10.7-24-24-24s-24 10.7-24 24v23.7h-213v-23.7c0-13.3-10.7-24-24-24s-24 10.7-24 24v23.7h-95.8c-50.6 0-91.7 41.1-91.7 91.7v535.4c0 50.6 41.1 91.7 91.7 91.7h500.6c50.6 0 91.7-41.1 91.7-91.7V256.2c0-50.7-41.1-91.7-91.7-91.7z m43.7 627c0 24.1-19.6 43.7-43.7 43.7H261.7c-24.1 0-43.7-19.6-43.7-43.7V256.2c0-24.1 19.6-43.7 43.7-43.7h95.8v4.6c0 13.3 10.7 24 24 24s24-10.7 24-24v-4.6h212.9v4.6c0 13.3 10.7 24 24 24s24-10.7 24-24v-4.6h95.8c24.1 0 43.7 19.6 43.7 43.7v535.3z" p-id="11484"></path><path d="M315.7 396.7h318.5c13.3 0 24-10.7 24-24s-10.7-24-24-24H315.7c-13.3 0-24 10.7-24 24s10.7 24 24 24zM556 651H315.7c-13.3 0-24 10.7-24 24s10.7 24 24 24H556c13.3 0 24-10.7 24-24s-10.7-24-24-24zM708.6 499.8H315.7c-13.3 0-24 10.7-24 24s10.7 24 24 24h392.9c13.3 0 24-10.7 24-24s-10.7-24-24-24z" p-id="11485"></path></svg>