<svg t="1629970647538" class="icon" viewBox="0 0 1024 1024" version="1.1" xmlns="http://www.w3.org/2000/svg" p-id="20011" width="200" height="200"><path d="M128 96a32 32 0 0 0-32 32v768a32 32 0 0 0 32 32h768a32 32 0 0 0 32-32V128a32 32 0 0 0-32-32H128zM128 0h768a128 128 0 0 1 128 128v768a128 128 0 0 1-128 128H128a128 128 0 0 1-128-128V128a128 128 0 0 1 128-128z" fill="#2c2c2c" p-id="20012"></path><path d="M288 288v448h448v-448h-448zM256 192h512a64 64 0 0 1 64 64v512a64 64 0 0 1-64 64H256a64 64 0 0 1-64-64V256a64 64 0 0 1 64-64z" fill="#2c2c2c" p-id="20013"></path><path d="M192 460.8h640v96H192z" fill="#2c2c2c" p-id="20014"></path><path d="M560 252.8v576h-96v-576z" fill="#2c2c2c" p-id="20015"></path></svg>