<svg t="1629966937362" class="icon" viewBox="0 0 1024 1024" version="1.1" xmlns="http://www.w3.org/2000/svg" p-id="10514" width="200" height="200"><path d="M112 140.576v742.848h800V140.576H112z m542.864 185.712h200v128.576h-200v-128.576zM369.12 826.288h-200v-131.424h200v131.424z m0-188.576h-200V512h200v125.712z m0-182.848h-200v-128.576h200v128.576z m228.576 371.424H426.288v-131.424h171.424v131.424z m0-188.576H426.288V512h171.424v125.712z m0-182.848H426.288v-128.576h171.424v128.576zM854.88 826.288h-200v-131.424h200v131.424z m0-188.576h-200V512h200v125.712z" p-id="10515"></path></svg>